<mxfile host="app.diagrams.net" agent="Mozilla/5.0 (Windows NT 10.0; Win64; x64) AppleWebKit/537.36 (KHTML, like Gecko) Chrome/138.0.0.0 Safari/537.36" version="27.1.6">
  <diagram name="第 1 页" id="3lwqFTD6xPYyoYpWnFxQ">
    <mxGraphModel dx="2066" dy="1206" grid="1" gridSize="10" guides="1" tooltips="1" connect="1" arrows="1" fold="1" page="1" pageScale="1" pageWidth="827" pageHeight="1169" math="0" shadow="0">
      <root>
        <mxCell id="0" />
        <mxCell id="1" parent="0" />
        <mxCell id="YCqNurUwaPrsoeK9ZF8q-7" style="edgeStyle=orthogonalEdgeStyle;rounded=0;orthogonalLoop=1;jettySize=auto;html=1;exitX=0.5;exitY=1;exitDx=0;exitDy=0;" edge="1" parent="1" source="YCqNurUwaPrsoeK9ZF8q-1" target="YCqNurUwaPrsoeK9ZF8q-6">
          <mxGeometry relative="1" as="geometry" />
        </mxCell>
        <mxCell id="YCqNurUwaPrsoeK9ZF8q-1" value="参与抽奖活动" style="rounded=1;whiteSpace=wrap;html=1;strokeWidth=2;fillWeight=4;hachureGap=8;hachureAngle=45;fillColor=#D5E8D4;sketch=1;" vertex="1" parent="1">
          <mxGeometry x="260" y="120" width="120" height="60" as="geometry" />
        </mxCell>
        <mxCell id="YCqNurUwaPrsoeK9ZF8q-4" style="edgeStyle=orthogonalEdgeStyle;rounded=0;orthogonalLoop=1;jettySize=auto;html=1;entryX=0;entryY=0.25;entryDx=0;entryDy=0;" edge="1" parent="1" source="YCqNurUwaPrsoeK9ZF8q-2" target="YCqNurUwaPrsoeK9ZF8q-1">
          <mxGeometry relative="1" as="geometry" />
        </mxCell>
        <mxCell id="YCqNurUwaPrsoeK9ZF8q-2" value="用户id" style="ellipse;whiteSpace=wrap;html=1;" vertex="1" parent="1">
          <mxGeometry x="170" y="20" width="100" height="60" as="geometry" />
        </mxCell>
        <mxCell id="YCqNurUwaPrsoeK9ZF8q-5" style="edgeStyle=orthogonalEdgeStyle;rounded=0;orthogonalLoop=1;jettySize=auto;html=1;exitX=0.5;exitY=1;exitDx=0;exitDy=0;entryX=1;entryY=0.25;entryDx=0;entryDy=0;" edge="1" parent="1" source="YCqNurUwaPrsoeK9ZF8q-3" target="YCqNurUwaPrsoeK9ZF8q-1">
          <mxGeometry relative="1" as="geometry" />
        </mxCell>
        <mxCell id="YCqNurUwaPrsoeK9ZF8q-3" value="活动id" style="ellipse;whiteSpace=wrap;html=1;" vertex="1" parent="1">
          <mxGeometry x="380" y="20" width="110" height="60" as="geometry" />
        </mxCell>
        <mxCell id="YCqNurUwaPrsoeK9ZF8q-9" value="" style="edgeStyle=orthogonalEdgeStyle;rounded=0;orthogonalLoop=1;jettySize=auto;html=1;" edge="1" parent="1" source="YCqNurUwaPrsoeK9ZF8q-6" target="YCqNurUwaPrsoeK9ZF8q-8">
          <mxGeometry relative="1" as="geometry" />
        </mxCell>
        <mxCell id="YCqNurUwaPrsoeK9ZF8q-6" value="抽奖活动" style="rounded=0;whiteSpace=wrap;html=1;fillColor=#E1D5E7;" vertex="1" parent="1">
          <mxGeometry x="260" y="250" width="120" height="60" as="geometry" />
        </mxCell>
        <mxCell id="YCqNurUwaPrsoeK9ZF8q-11" style="edgeStyle=orthogonalEdgeStyle;rounded=0;orthogonalLoop=1;jettySize=auto;html=1;exitX=0.5;exitY=1;exitDx=0;exitDy=0;entryX=0.5;entryY=0;entryDx=0;entryDy=0;" edge="1" parent="1" source="YCqNurUwaPrsoeK9ZF8q-8" target="YCqNurUwaPrsoeK9ZF8q-10">
          <mxGeometry relative="1" as="geometry" />
        </mxCell>
        <mxCell id="YCqNurUwaPrsoeK9ZF8q-8" value="校验活动状态和有效时间" style="rounded=0;whiteSpace=wrap;html=1;fillColor=#FFCCFF;" vertex="1" parent="1">
          <mxGeometry x="260" y="360" width="120" height="60" as="geometry" />
        </mxCell>
        <mxCell id="YCqNurUwaPrsoeK9ZF8q-18" style="edgeStyle=orthogonalEdgeStyle;rounded=0;orthogonalLoop=1;jettySize=auto;html=1;exitX=0.5;exitY=1;exitDx=0;exitDy=0;entryX=0.5;entryY=0;entryDx=0;entryDy=0;" edge="1" parent="1" source="YCqNurUwaPrsoeK9ZF8q-10" target="YCqNurUwaPrsoeK9ZF8q-17">
          <mxGeometry relative="1" as="geometry">
            <Array as="points">
              <mxPoint x="320" y="630" />
              <mxPoint x="320" y="630" />
            </Array>
          </mxGeometry>
        </mxCell>
        <mxCell id="YCqNurUwaPrsoeK9ZF8q-19" value="查询" style="edgeLabel;html=1;align=center;verticalAlign=middle;resizable=0;points=[];" vertex="1" connectable="0" parent="YCqNurUwaPrsoeK9ZF8q-18">
          <mxGeometry x="-0.125" y="-1" relative="1" as="geometry">
            <mxPoint as="offset" />
          </mxGeometry>
        </mxCell>
        <mxCell id="YCqNurUwaPrsoeK9ZF8q-10" value="&amp;nbsp;查询未被使用的活动参与订单记录" style="rounded=1;whiteSpace=wrap;html=1;fillColor=#99FFCC;" vertex="1" parent="1">
          <mxGeometry x="260" y="500" width="120" height="60" as="geometry" />
        </mxCell>
        <mxCell id="YCqNurUwaPrsoeK9ZF8q-15" value="" style="edgeStyle=orthogonalEdgeStyle;rounded=0;orthogonalLoop=1;jettySize=auto;html=1;" edge="1" parent="1" source="YCqNurUwaPrsoeK9ZF8q-12" target="YCqNurUwaPrsoeK9ZF8q-14">
          <mxGeometry relative="1" as="geometry" />
        </mxCell>
        <mxCell id="YCqNurUwaPrsoeK9ZF8q-16" value="是" style="edgeLabel;html=1;align=center;verticalAlign=middle;resizable=0;points=[];" vertex="1" connectable="0" parent="YCqNurUwaPrsoeK9ZF8q-15">
          <mxGeometry x="0.0444" y="2" relative="1" as="geometry">
            <mxPoint as="offset" />
          </mxGeometry>
        </mxCell>
        <mxCell id="YCqNurUwaPrsoeK9ZF8q-12" value="存在" style="rhombus;whiteSpace=wrap;html=1;strokeWidth=2;fillWeight=-1;hachureGap=8;fillStyle=cross-hatch;fillColor=#FFF2CC;sketch=1;" vertex="1" parent="1">
          <mxGeometry x="70" y="500" width="120" height="60" as="geometry" />
        </mxCell>
        <mxCell id="YCqNurUwaPrsoeK9ZF8q-13" style="edgeStyle=orthogonalEdgeStyle;rounded=0;orthogonalLoop=1;jettySize=auto;html=1;entryX=0.942;entryY=0.45;entryDx=0;entryDy=0;entryPerimeter=0;" edge="1" parent="1" source="YCqNurUwaPrsoeK9ZF8q-10" target="YCqNurUwaPrsoeK9ZF8q-12">
          <mxGeometry relative="1" as="geometry" />
        </mxCell>
        <mxCell id="YCqNurUwaPrsoeK9ZF8q-14" value="未被使用的活动参与订单" style="whiteSpace=wrap;html=1;fillColor=#E6FFCC;strokeWidth=2;fillWeight=-1;hachureGap=8;fillStyle=cross-hatch;sketch=1;" vertex="1" parent="1">
          <mxGeometry x="60" y="260" width="140" height="60" as="geometry" />
        </mxCell>
        <mxCell id="YCqNurUwaPrsoeK9ZF8q-22" style="edgeStyle=orthogonalEdgeStyle;rounded=0;orthogonalLoop=1;jettySize=auto;html=1;exitX=1;exitY=0.5;exitDx=0;exitDy=0;" edge="1" parent="1" source="YCqNurUwaPrsoeK9ZF8q-17" target="YCqNurUwaPrsoeK9ZF8q-21">
          <mxGeometry relative="1" as="geometry" />
        </mxCell>
        <mxCell id="YCqNurUwaPrsoeK9ZF8q-23" value="构建" style="edgeLabel;html=1;align=center;verticalAlign=middle;resizable=0;points=[];" vertex="1" connectable="0" parent="YCqNurUwaPrsoeK9ZF8q-22">
          <mxGeometry x="-0.1143" y="-2" relative="1" as="geometry">
            <mxPoint as="offset" />
          </mxGeometry>
        </mxCell>
        <mxCell id="YCqNurUwaPrsoeK9ZF8q-17" value="用户账户总额度" style="rounded=0;whiteSpace=wrap;html=1;fillColor=#CCCCCC;" vertex="1" parent="1">
          <mxGeometry x="260" y="650" width="120" height="60" as="geometry" />
        </mxCell>
        <mxCell id="YCqNurUwaPrsoeK9ZF8q-20" value="判断是否有剩余&lt;div&gt;抽奖额度&lt;/div&gt;" style="ellipse;shape=cloud;whiteSpace=wrap;html=1;fillColor=#67AB9F;" vertex="1" parent="1">
          <mxGeometry x="100" y="630" width="120" height="80" as="geometry" />
        </mxCell>
        <mxCell id="YCqNurUwaPrsoeK9ZF8q-26" value="" style="edgeStyle=orthogonalEdgeStyle;rounded=0;orthogonalLoop=1;jettySize=auto;html=1;" edge="1" parent="1" source="YCqNurUwaPrsoeK9ZF8q-21" target="YCqNurUwaPrsoeK9ZF8q-25">
          <mxGeometry relative="1" as="geometry" />
        </mxCell>
        <mxCell id="YCqNurUwaPrsoeK9ZF8q-27" value="构建" style="edgeLabel;html=1;align=center;verticalAlign=middle;resizable=0;points=[];" vertex="1" connectable="0" parent="YCqNurUwaPrsoeK9ZF8q-26">
          <mxGeometry x="-0.0824" y="-2" relative="1" as="geometry">
            <mxPoint as="offset" />
          </mxGeometry>
        </mxCell>
        <mxCell id="YCqNurUwaPrsoeK9ZF8q-21" value="参与活动订单聚合对象" style="ellipse;shape=doubleEllipse;whiteSpace=wrap;html=1;aspect=fixed;fillColor=#FFB570;" vertex="1" parent="1">
          <mxGeometry x="530" y="615" width="130" height="130" as="geometry" />
        </mxCell>
        <mxCell id="YCqNurUwaPrsoeK9ZF8q-28" style="edgeStyle=orthogonalEdgeStyle;rounded=0;orthogonalLoop=1;jettySize=auto;html=1;" edge="1" parent="1" source="YCqNurUwaPrsoeK9ZF8q-24" target="YCqNurUwaPrsoeK9ZF8q-21">
          <mxGeometry relative="1" as="geometry" />
        </mxCell>
        <mxCell id="YCqNurUwaPrsoeK9ZF8q-24" value="&lt;div style=&quot;background-color: rgb(43, 43, 43); color: rgb(169, 183, 198); font-family: &amp;quot;JetBrains Mono&amp;quot;, monospace; white-space: pre;&quot;&gt;&lt;font style=&quot;font-size: 18px;&quot;&gt;CreatePartakeOrderAggregate createPartakeOrderAggregate = &lt;span style=&quot;color: rgb(204, 120, 50);&quot;&gt;new &lt;/span&gt;CreatePartakeOrderAggregate&lt;span style=&quot;color: rgb(232, 186, 54);&quot;&gt;()&lt;/span&gt;&lt;span style=&quot;color: rgb(204, 120, 50);&quot;&gt;;&lt;br&gt;&lt;/span&gt;createPartakeOrderAggregate.setUserId&lt;span style=&quot;color: rgb(232, 186, 54);&quot;&gt;(&lt;/span&gt;userId&lt;span style=&quot;color: rgb(232, 186, 54);&quot;&gt;)&lt;/span&gt;&lt;span style=&quot;color: rgb(204, 120, 50);&quot;&gt;;&lt;br&gt;&lt;/span&gt;createPartakeOrderAggregate.setActivityId&lt;span style=&quot;color: rgb(232, 186, 54);&quot;&gt;(&lt;/span&gt;activityId&lt;span style=&quot;color: rgb(232, 186, 54);&quot;&gt;)&lt;/span&gt;&lt;span style=&quot;color: rgb(204, 120, 50);&quot;&gt;;&lt;br&gt;&lt;/span&gt;createPartakeOrderAggregate.setActivityAccountEntity&lt;span style=&quot;color: rgb(232, 186, 54);&quot;&gt;(&lt;/span&gt;activityAccountEntity&lt;span style=&quot;color: rgb(232, 186, 54);&quot;&gt;)&lt;/span&gt;&lt;span style=&quot;color: rgb(204, 120, 50);&quot;&gt;;&lt;br&gt;&lt;/span&gt;createPartakeOrderAggregate.setExistAccountMonth&lt;span style=&quot;color: rgb(232, 186, 54);&quot;&gt;(&lt;/span&gt;isExistAccountMonth&lt;span style=&quot;color: rgb(232, 186, 54);&quot;&gt;)&lt;/span&gt;&lt;span style=&quot;color: rgb(204, 120, 50);&quot;&gt;;&lt;br&gt;&lt;/span&gt;createPartakeOrderAggregate.setActivityAccountMonthEntity&lt;span style=&quot;color: rgb(232, 186, 54);&quot;&gt;(&lt;/span&gt;activityAccountMonthEntity&lt;span style=&quot;color: rgb(232, 186, 54);&quot;&gt;)&lt;/span&gt;&lt;span style=&quot;color: rgb(204, 120, 50);&quot;&gt;;&lt;br&gt;&lt;/span&gt;createPartakeOrderAggregate.setExistAccountDay&lt;span style=&quot;color: rgb(232, 186, 54);&quot;&gt;(&lt;/span&gt;isExistAccountDay&lt;span style=&quot;color: rgb(232, 186, 54);&quot;&gt;)&lt;/span&gt;&lt;span style=&quot;color: rgb(204, 120, 50);&quot;&gt;;&lt;br&gt;&lt;/span&gt;createPartakeOrderAggregate.setActivityAccountDayEntity&lt;span style=&quot;color: rgb(232, 186, 54);&quot;&gt;(&lt;/span&gt;activityAccountDayEntity&lt;span style=&quot;color: rgb(232, 186, 54);&quot;&gt;)&lt;/span&gt;&lt;span style=&quot;color: rgb(204, 120, 50);&quot;&gt;;&lt;/span&gt;&lt;/font&gt;&lt;/div&gt;" style="text;html=1;align=left;verticalAlign=middle;whiteSpace=wrap;rounded=0;" vertex="1" parent="1">
          <mxGeometry x="205" y="870" width="780" height="290" as="geometry" />
        </mxCell>
        <mxCell id="YCqNurUwaPrsoeK9ZF8q-25" value="用户参与活动订单&lt;div&gt;UserRaffleOrderEntity&lt;/div&gt;" style="whiteSpace=wrap;html=1;fillColor=#FFB570;" vertex="1" parent="1">
          <mxGeometry x="745" y="650" width="185" height="60" as="geometry" />
        </mxCell>
        <mxCell id="YCqNurUwaPrsoeK9ZF8q-29" style="edgeStyle=orthogonalEdgeStyle;rounded=0;orthogonalLoop=1;jettySize=auto;html=1;entryX=0.408;entryY=0.008;entryDx=0;entryDy=0;entryPerimeter=0;" edge="1" parent="1" source="YCqNurUwaPrsoeK9ZF8q-25" target="YCqNurUwaPrsoeK9ZF8q-21">
          <mxGeometry relative="1" as="geometry">
            <Array as="points">
              <mxPoint x="820" y="595" />
              <mxPoint x="583" y="595" />
            </Array>
          </mxGeometry>
        </mxCell>
        <mxCell id="YCqNurUwaPrsoeK9ZF8q-30" value="保存" style="edgeLabel;html=1;align=center;verticalAlign=middle;resizable=0;points=[];" vertex="1" connectable="0" parent="YCqNurUwaPrsoeK9ZF8q-29">
          <mxGeometry x="0.3545" y="1" relative="1" as="geometry">
            <mxPoint x="27" as="offset" />
          </mxGeometry>
        </mxCell>
        <mxCell id="YCqNurUwaPrsoeK9ZF8q-31" value="总账户可抽奖次数更新（-1）" style="ellipse;whiteSpace=wrap;html=1;strokeWidth=2;fillWeight=2;hachureGap=8;fillColor=#FFB570;fillStyle=dots;sketch=1;" vertex="1" parent="1">
          <mxGeometry x="400" y="420" width="210" height="70" as="geometry" />
        </mxCell>
        <mxCell id="YCqNurUwaPrsoeK9ZF8q-33" value="月账户可抽奖次数更新（-1）" style="ellipse;whiteSpace=wrap;html=1;strokeWidth=2;fillWeight=2;hachureGap=8;fillColor=#FFB570;fillStyle=dots;sketch=1;" vertex="1" parent="1">
          <mxGeometry x="670" y="420" width="210" height="70" as="geometry" />
        </mxCell>
        <mxCell id="YCqNurUwaPrsoeK9ZF8q-34" value="日账户可抽奖次数更新（-1）" style="ellipse;whiteSpace=wrap;html=1;strokeWidth=2;fillWeight=2;hachureGap=8;fillColor=#FFB570;fillStyle=dots;sketch=1;" vertex="1" parent="1">
          <mxGeometry x="920" y="420" width="210" height="70" as="geometry" />
        </mxCell>
        <mxCell id="YCqNurUwaPrsoeK9ZF8q-35" value="活动参与订单" style="rounded=1;whiteSpace=wrap;html=1;strokeWidth=2;fillWeight=4;hachureGap=8;hachureAngle=45;fillColor=#FFB570;sketch=1;" vertex="1" parent="1">
          <mxGeometry x="580" y="500" width="120" height="60" as="geometry" />
        </mxCell>
      </root>
    </mxGraphModel>
  </diagram>
</mxfile>
